<?xml version="1.0" encoding="UTF-8"?>
<svg id="Layer_2" data-name="Layer 2" xmlns="http://www.w3.org/2000/svg" viewBox="0 0 732.21 176.39">
  <defs>
    <style>
      .cls-1 {
        fill: #b1cbc6;
      }

      .cls-2 {
        letter-spacing: 0em;
      }

      .cls-3 {
        letter-spacing: 0em;
      }

      .cls-4, .cls-5 {
        fill: #1b3d48;
      }

      .cls-5 {
        font-family: Gilroy-SemiBold, Gilroy;
        font-size: 32.46px;
        font-weight: 600;
      }
    </style>
  </defs>
  <g id="info">
    <g>
      <g>
        <path class="cls-4" d="m99.2,20.9c-6.17-7.75-11.54-13.18-16.44-16.63-4.09-2.87-7.66-4.27-10.89-4.27-1.35,0-2.68.24-4.06.74L0,25.24v92.69c4.69-8.81,9.51-17.55,14.52-25.16,6.08-9.24,11.87-15.95,17.7-20.5,3.43-2.67,6.97-4.67,10.57-5.96v-.02s70.76-25.57,70.76-25.57c-4.97-7.32-9.67-13.97-14.34-19.83Z"/>
        <path class="cls-4" d="m80.23,103.24c-6.18-7.76-11.55-13.2-16.44-16.62-3.66-2.57-7.02-4-9.99-4.23-.24-.02-.54-.04-.77-.05h-.16c-.3,0-.6.02-.89.04-.15.02-.31.05-.46.06-.25.03-.5.06-.64.09l-.11.02c-.12.03-.24.06-.36.08-.24.05-.44.1-.65.15-.05.02-.12.04-.2.07l-.26.09c-1.96.63-4.02,1.78-6.13,3.42-4.27,3.33-8.77,8.63-13.76,16.22-5.95,9.05-11.87,20.29-17.6,31.17l-.04.07c-3.59,6.83-7.62,14.49-11.79,21.71v5.44l96.6-34.9c-5.45-8.11-10.98-16.07-16.37-22.83Z"/>
        <path class="cls-1" d="m168.7,175.5l2.27-.82,42.83-15.47V23.47l-83.46,30.15-54.5,19.69c5.75,4.38,11.78,10.55,18.34,18.8,7.67,9.61,15.31,21.09,22.7,32.2l.26.4.62.93c6.64,9.96,14.15,21.25,21.36,30.32,6.06,7.59,11.31,12.91,16.04,16.23,3.81,2.67,7.07,3.97,9.96,3.97,1.18,0,2.35-.21,3.57-.66Z"/>
      </g>
      <g>
        <path class="cls-4" d="m627.01,75.34h-25.15l-4.16,12.03h-13.3l22.71-63.23h14.75l22.7,63.23h-13.39l-4.16-12.03Zm-3.44-10.13l-9.14-26.41-9.14,26.41h18.28Z"/>
        <path class="cls-4" d="m665.72,24.22v63.14h-12.67V24.22h12.67Z"/>
        <path class="cls-4" d="m732.21,87.36h-12.66l-28.68-43.33v43.33h-12.67V24.13h12.67l28.68,43.42V24.13h12.66v63.23Z"/>
        <path class="cls-4" d="m330.08,24.13v63.14h-12.67v-41.07l-16.92,41.07h-9.59l-17-41.07v41.07h-12.67V24.13h14.38l20.08,46.95,20.08-46.95h14.29Z"/>
        <path class="cls-4" d="m355.58,83.75c-4.94-2.77-8.87-6.62-11.76-11.53-2.9-4.91-4.34-10.48-4.34-16.69s1.45-11.68,4.34-16.6c2.89-4.91,6.82-8.76,11.76-11.53,4.94-2.77,10.37-4.16,16.28-4.16s11.41,1.39,16.33,4.16c4.91,2.77,8.8,6.62,11.67,11.53,2.86,4.92,4.29,10.45,4.29,16.6s-1.43,11.78-4.29,16.69c-2.87,4.92-6.77,8.76-11.72,11.53-4.94,2.77-10.37,4.16-16.28,4.16s-11.34-1.39-16.28-4.16Zm26.32-9.72c2.9-1.72,5.16-4.18,6.79-7.37,1.63-3.2,2.44-6.91,2.44-11.13s-.81-7.91-2.44-11.08c-1.62-3.17-3.89-5.59-6.79-7.28-2.89-1.69-6.24-2.53-10.04-2.53s-7.16.84-10.09,2.53c-2.92,1.69-5.2,4.11-6.83,7.28-1.63,3.17-2.44,6.86-2.44,11.08s.81,7.93,2.44,11.13c1.63,3.19,3.91,5.65,6.83,7.37,2.92,1.72,6.28,2.58,10.09,2.58s7.15-.86,10.04-2.58Z"/>
        <path class="cls-4" d="m426.05,24.13v39.08c0,4.28,1.11,7.55,3.35,9.82,2.23,2.26,5.36,3.39,9.4,3.39s7.27-1.13,9.5-3.39c2.23-2.26,3.35-5.53,3.35-9.82V24.13h12.75v38.99c0,5.36-1.16,9.9-3.48,13.61-2.32,3.71-5.43,6.5-9.32,8.37-3.89,1.87-8.22,2.8-12.98,2.8s-8.97-.93-12.8-2.8c-3.83-1.87-6.86-4.66-9.09-8.37-2.23-3.71-3.35-8.25-3.35-13.61V24.13h12.67Z"/>
        <path class="cls-4" d="m530.61,87.28h-12.66l-28.67-43.33v43.33h-12.67V24.05h12.67l28.67,43.42V24.05h12.66v63.23Z"/>
        <path class="cls-4" d="m586.06,24.13v10.22h-16.83v52.92h-12.66v-52.92h-16.82v-10.22h46.31Z"/>
        <path class="cls-4" d="m274.26,172.23c-4.94-2.77-8.87-6.62-11.76-11.53-2.9-4.91-4.34-10.48-4.34-16.69s1.45-11.68,4.34-16.6c2.89-4.91,6.82-8.76,11.76-11.53,4.94-2.77,10.37-4.16,16.28-4.16s11.41,1.39,16.33,4.16c4.91,2.77,8.8,6.62,11.67,11.53,2.86,4.92,4.29,10.45,4.29,16.6s-1.43,11.78-4.29,16.69c-2.87,4.92-6.77,8.76-11.72,11.53-4.94,2.77-10.37,4.16-16.28,4.16s-11.34-1.39-16.28-4.16Zm26.32-9.72c2.9-1.72,5.16-4.18,6.79-7.37,1.63-3.2,2.44-6.91,2.44-11.13s-.81-7.91-2.44-11.08c-1.62-3.17-3.89-5.59-6.79-7.28-2.89-1.69-6.24-2.53-10.04-2.53s-7.16.84-10.09,2.53c-2.92,1.69-5.2,4.11-6.83,7.28-1.63,3.17-2.44,6.86-2.44,11.08s.81,7.93,2.44,11.13c1.63,3.19,3.91,5.65,6.83,7.37,2.92,1.72,6.28,2.58,10.09,2.58s7.15-.86,10.04-2.58Z"/>
        <path class="cls-4" d="m333.38,127.41c2.81-4.91,6.64-8.74,11.49-11.49,4.85-2.74,10.3-4.11,16.33-4.11,7.06,0,13.24,1.81,18.54,5.42,5.31,3.62,9.02,8.63,11.13,15.02h-14.57c-1.44-3.01-3.48-5.28-6.11-6.78-2.62-1.51-5.65-2.26-9.09-2.26-3.68,0-6.95.86-9.82,2.58-2.87,1.72-5.1,4.15-6.69,7.28-1.6,3.14-2.39,6.82-2.39,11.04s.8,7.82,2.39,10.99c1.59,3.17,3.83,5.61,6.69,7.33,2.86,1.72,6.13,2.58,9.82,2.58,3.44,0,6.47-.77,9.09-2.31,2.62-1.54,4.66-3.81,6.11-6.83h14.57c-2.11,6.45-5.81,11.47-11.08,15.06-5.28,3.59-11.47,5.38-18.59,5.38-6.03,0-11.47-1.37-16.33-4.12-4.85-2.74-8.68-6.56-11.49-11.44-2.8-4.88-4.21-10.43-4.21-16.64s1.4-11.77,4.21-16.69Z"/>
        <path class="cls-4" d="m414.38,122.84v15.83h21.26v10.04h-21.26v16.73h23.97v10.31h-36.63v-63.23h36.63v10.31h-23.97Z"/>
        <path class="cls-4" d="m488.56,163.73h-25.15l-4.16,12.03h-13.3l22.71-63.23h14.75l22.7,63.23h-13.39l-4.16-12.03Zm-3.44-10.13l-9.14-26.41-9.14,26.41h18.28Z"/>
        <path class="cls-4" d="m568.61,175.76h-12.66l-28.68-43.33v43.33h-12.67v-63.23h12.67l28.68,43.42v-43.42h12.66v63.23Z"/>
        <text class="cls-5" transform="translate(586.06 134.99)"><tspan class="cls-2" x="0" y="0">S</tspan><tspan class="cls-3" x="18.53" y="0">A</tspan></text>
      </g>
    </g>
  </g>
</svg>